<svg xmlns="http://www.w3.org/2000/svg" version="1.1" xmlns:xlink="http://www.w3.org/1999/xlink" xmlns:svgjs="http://svgjs.com/svgjs" width="120" height="120"><svg version="1.1" id="SvgjsSvg1002" xmlns="http://www.w3.org/2000/svg" xmlns:xlink="http://www.w3.org/1999/xlink" x="0px" y="0px" viewBox="0 0 120 120" style="enable-background:new 0 0 120 120;" xml:space="preserve">
<style type="text/css">
	.st0{fill:#333333;}
	.st1{fill-rule:evenodd;clip-rule:evenodd;fill:#58595B;}
</style>
<path id="SvgjsPath1001" class="st0" d="M115.72,65.48c0.17-1.77-1.91-3.67-1.91-5.49c0-1.82,2.08-3.72,1.91-5.49
	c-0.18-1.8-2.59-3.26-2.93-5.01c-0.35-1.77,1.32-4.04,0.8-5.75c-0.52-1.73-3.17-2.69-3.86-4.34c-0.69-1.67,0.5-4.22-0.34-5.8
	s-3.63-2.01-4.63-3.5c-1-1.49-0.33-4.23-1.47-5.62s-3.96-1.26-5.23-2.53c-1.27-1.27-1.14-4.09-2.53-5.23s-4.12-0.47-5.62-1.47
	s-1.91-3.78-3.5-4.63s-4.13,0.35-5.8-0.34c-1.65-0.69-2.61-3.34-4.34-3.86c-1.71-0.52-3.98,1.15-5.75,0.8
	c-1.75-0.35-3.21-2.76-5.01-2.93C63.71,4.11,61.82,6.19,60,6.19s-3.72-2.08-5.49-1.91c-1.8,0.18-3.26,2.59-5.01,2.93
	c-1.77,0.35-4.04-1.32-5.75-0.8c-1.73,0.52-2.69,3.17-4.34,3.86c-1.67,0.69-4.22-0.5-5.8,0.34s-2.01,3.63-3.5,4.64
	c-1.49,1-4.23,0.33-5.62,1.47s-1.26,3.96-2.53,5.23s-4.09,1.14-5.23,2.53c-1.14,1.39-0.47,4.12-1.47,5.62c-1,1.5-3.78,1.91-4.63,3.5
	c-0.85,1.59,0.35,4.13-0.34,5.8c-0.69,1.65-3.34,2.61-3.86,4.34c-0.52,1.71,1.15,3.98,0.8,5.75c-0.35,1.75-2.76,3.21-2.93,5.01
	C4.11,56.29,6.19,58.18,6.19,60s-2.08,3.72-1.91,5.49c0.18,1.8,2.59,3.26,2.93,5.01c0.35,1.77-1.32,4.04-0.8,5.75
	c0.52,1.73,3.17,2.69,3.86,4.34c0.69,1.67-0.5,4.22,0.34,5.8s3.63,2.01,4.63,3.5s0.33,4.23,1.47,5.62c1.14,1.39,3.96,1.26,5.23,2.53
	s1.14,4.09,2.53,5.23c1.39,1.14,4.12,0.47,5.62,1.47c1.49,1,1.91,3.78,3.5,4.63c1.59,0.85,4.13-0.35,5.8,0.34
	c1.65,0.69,2.61,3.33,4.34,3.86c1.71,0.52,3.98-1.15,5.75-0.8c1.75,0.35,3.21,2.76,5.01,2.93c1.77,0.18,3.67-1.91,5.49-1.91
	s3.72,2.08,5.49,1.91c1.8-0.18,3.27-2.59,5.01-2.93c1.77-0.35,4.04,1.32,5.75,0.8c1.73-0.52,2.69-3.17,4.34-3.86
	c1.67-0.69,4.22,0.5,5.8-0.34c1.58-0.85,2.01-3.63,3.5-4.63c1.49-1,4.23-0.33,5.62-1.47c1.39-1.14,1.26-3.96,2.53-5.23
	c1.27-1.27,4.09-1.14,5.23-2.53c1.14-1.39,0.47-4.12,1.47-5.62c1-1.49,3.78-1.91,4.63-3.5s-0.35-4.13,0.34-5.8
	c0.69-1.65,3.34-2.61,3.86-4.34c0.52-1.71-1.15-3.98-0.8-5.75C113.13,68.75,115.54,67.29,115.72,65.48z M28.91,60
	c0-17.34,14.06-31.4,31.4-31.4s31.4,14.06,31.4,31.4s-14.06,31.4-31.4,31.4S28.91,77.34,28.91,60L28.91,60z"></path>
<path id="SvgjsPath1000" class="st1" d="M100.28,53.92c0.93-0.31,1.44-1.3,1.14-2.23l-2.44-7.51c-0.31-0.93-1.3-1.44-2.23-1.14l-28.91,9.38
	c-0.93,0.3-1.71-0.25-1.71-1.23V20.75c0.02-0.95-0.74-1.73-1.69-1.74c-0.01,0-0.03,0-0.04,0h-7.9c-0.98,0-1.8,0.77-1.8,1.74v30.71
	c0,0.98-0.74,1.53-1.67,1.23l-28.99-9.42c-0.93-0.3-1.93,0.21-2.23,1.14l-2.44,7.51c-0.3,0.93,0.21,1.93,1.14,2.23l28.88,9.38
	c0.93,0.3,1.22,1.19,0.64,1.98L32.47,89.68c-0.57,0.79-0.4,1.9,0.39,2.48l6.39,4.64c0.79,0.57,1.9,0.4,2.48-0.39l17.52-24.11
	c0.57-0.79,1.51-0.79,2.08,0l17.6,24.22c0.58,0.79,1.68,0.96,2.48,0.39l6.39-4.64c0.79-0.58,0.96-1.68,0.39-2.48L70.46,65.38
	c-0.57-0.79-0.28-1.68,0.64-1.98L100.28,53.92z"></path>
</svg><style>@media (prefers-color-scheme: light) { :root { filter: none; } }
@media (prefers-color-scheme: dark) { :root { filter: contrast(0.8333333333333334) brightness(1.7); } }
</style></svg>